<svg id="Layer_1" data-name="Layer 1" xmlns="http://www.w3.org/2000/svg" viewBox="0 0 116.53 116.53"><defs><style>.cls-1{fill:none;}.cls-2{fill:#feda00;}</style></defs><rect class="cls-1" width="116.53" height="116.53"/><path class="cls-2" d="M58.28,100.58a42.34,42.34,0,1,1,42.34-42.33A42.38,42.38,0,0,1,58.28,100.58Zm0-83.26A40.93,40.93,0,1,0,99.2,58.25,41,41,0,0,0,58.28,17.32Z"/><path class="cls-2" d="M46.62,64.19a3.32,3.32,0,0,1-1.36-1.47c-.44-.72-7-13.84-7-13.9a.16.16,0,0,0-.29,0c-.62,1.18-6.07,13-6.07,13a4.1,4.1,0,0,1-2.09,2.4c-.21.11-.31.17-.31.25s.15.17.37.17c1.81-.07,3.32-.07,5.14,0,.15,0,.31,0,.31-.15s-.06-.14-.43-.25c-1.39-.39-2.12-1-2.12-1.65a2.32,2.32,0,0,1,.19-.92l.65-1.47h4.91l1.13,2.37a1.42,1.42,0,0,1,.21.7c0,.58-.83.81-1.64,1-.2.06-.33.1-.33.2s.13.15.33.15c3.07-.09,5.43-.09,8.5,0,.14,0,.25-.07.25-.17s-.13-.16-.36-.29m-12.68-4.7,2-4.6,2.21,4.6Z"/><path class="cls-2" d="M85.14,64.38c-.48-.21-.94-.44-.94-.85V49.15c0-.16-.1-.23-.29-.19L78.8,50.33c-.4.11-.67.15-.67.29s.15.17.5.31a1.34,1.34,0,0,1,1,1.16V63.53c0,.41-.45.64-.93.85-.1,0-.16.1-.16.16s.06.11.14.11c2.16,0,4.31,0,6.51,0,.08,0,.14,0,.14-.11s-.06-.12-.16-.16"/><path class="cls-2" d="M74.53,53.77a2.51,2.51,0,1,0-2.59-2.51,2.46,2.46,0,0,0,2.59,2.51"/><path class="cls-2" d="M77.76,64.38c-.48-.21-.93-.44-.93-.85V54.37c0-.16-.11-.31-.4-.21l-5,1.7c-.33.13-.47.15-.47.27s.18.19.58.35.64.81.64,1.52v5.53c0,.41-.46.64-.93.85-.11,0-.17.1-.17.16s.06.11.15.11c2.15,0,4.31,0,6.5,0,.08,0,.15,0,.15-.11s-.07-.12-.17-.16"/><path class="cls-2" d="M72.17,54.64c0-.06-.09-.1-.19-.1H67.67c-.12,0-.23,0-.23.12s.11.15.21.19.75.33.95.45a1.16,1.16,0,0,1,.56,1.43c-.19.53-1.29,2.66-1.78,3.63-.9-1.56-2.44-4.52-2.44-4.52a.66.66,0,0,1-.09-.27c0-.22.19-.41.52-.58s.48-.22.48-.33-.08-.12-.25-.12h-7V49.13c0-.17-.11-.23-.29-.19L53,50.33c-.39.11-.66.15-.66.29s.14.17.5.31c.58.25,1.18.56,1.18,1.22V54.6c-.35,0-1.2-.1-1.6-.1a9.24,9.24,0,0,0-2.61.31A5.07,5.07,0,0,0,46,60.07a4.78,4.78,0,0,0,4.93,5.1,3.92,3.92,0,0,0,3.34-1.55l.06,1.3c0,.31.08.39.23.39a.39.39,0,0,0,.14,0,26.52,26.52,0,0,1,3.75-1,10.93,10.93,0,0,1,1.08-.19c.16,0,.21-.11.21-.17s-.09-.14-.32-.23c-.41-.14-.78-.39-.78-.72V55a2.06,2.06,0,0,1,1.22.91L65.12,65c.19.33.38.33.54,0,0-.09,3.83-7.27,3.83-7.27A5.86,5.86,0,0,1,72,54.81c.13-.07.15-.11.15-.17m-19.52,9c-1.28,0-2.15-1.61-2.24-4.35s.61-4.18,1.79-4.18,1.74,1.14,1.86,2.71c.06.69.08,2.45.08,3.67s-.56,2.15-1.49,2.15"/></svg>